<svg xmlns="http://www.w3.org/2000/svg" viewBox="0 0 512 512">
  <g fill="white">
    <path d="M98 292h204l-24 24c-8 8-8 20 0 28s20 8 28 0l58-58-58-58c-8-8-20-8-28 0s-8 20 0 28l24 24H98c-11 0-20 9-20 20s9 20 20 20z"/>
    <circle cx="320" cy="196" r="20"/>
    <circle cx="388" cy="196" r="20"/>
    <path d="M196 280c22 0 44 0 67 0l42-42c7-7 19-7 26 0 7 7 7 19 0 26l-47 47a18 18 0 0 1-13 5H196c-11 0-20-9-20-18 0-10 9-18 20-18z"/>
    <path d="M285 213c12 0 25 0 38 0l21-21c7-7 19-7 26 0 7 7 7 19 0 26l-27 27a18 18 0 0 1-13 5h-45c-10 0-18-8-18-18s8-19 18-19z"/>
  </g>
</svg>